<?xml version="1.0" standalone="no"?>
<!DOCTYPE svg PUBLIC "-//W3C//DTD SVG 20010904//EN"
 "http://www.w3.org/TR/2001/REC-SVG-20010904/DTD/svg10.dtd">
<svg version="1.0" xmlns="http://www.w3.org/2000/svg"
 width="1402.000000pt" height="479.000000pt" viewBox="0 0 1402.000000 479.000000"
 preserveAspectRatio="xMidYMid meet">
<metadata>
Created by potrace 1.16, written by Peter Selinger 2001-2019
</metadata>
<g transform="translate(0.000000,479.000000) scale(0.100000,-0.100000)"
fill="#000000" stroke="none">
<path d="M2600 4770 c0 -18 -7 -20 -60 -20 -47 0 -60 -3 -60 -15 0 -11 -11
-15 -40 -15 -33 0 -40 -3 -40 -20 0 -13 -7 -20 -20 -20 -17 0 -20 -7 -20 -40
0 -36 -2 -40 -25 -40 -24 0 -25 -2 -25 -75 0 -73 1 -75 25 -75 22 0 25 -4 25
-35 0 -28 4 -35 20 -35 13 0 20 -7 20 -20 0 -17 7 -20 40 -20 l40 0 0 -450 0
-450 -125 0 c-104 0 -125 -2 -125 -15 0 -12 -18 -15 -100 -15 -93 0 -100 -1
-100 -20 0 -18 -7 -20 -85 -20 -78 0 -85 -2 -85 -20 0 -18 -7 -20 -60 -20 -53
0 -60 -2 -60 -20 0 -17 -7 -20 -45 -20 -33 0 -45 -4 -45 -15 0 -12 -13 -15
-60 -15 -53 0 -60 -2 -60 -20 0 -17 -7 -20 -40 -20 -33 0 -40 -3 -40 -20 0
-17 -7 -20 -45 -20 -38 0 -45 -3 -45 -20 0 -13 -7 -20 -20 -20 -11 0 -20 -7
-20 -15 0 -11 -11 -15 -40 -15 -33 0 -40 -3 -40 -20 0 -13 -7 -20 -20 -20 -13
0 -20 -7 -20 -20 0 -17 -7 -20 -40 -20 -33 0 -40 -3 -40 -20 0 -15 -7 -20 -25
-20 -16 0 -25 -6 -25 -15 0 -8 -9 -15 -20 -15 -13 0 -20 -7 -20 -20 0 -13 -7
-20 -20 -20 -13 0 -20 -7 -20 -20 0 -13 -7 -20 -20 -20 -13 0 -20 -7 -20 -20
0 -13 -7 -20 -20 -20 -11 0 -20 -7 -20 -15 0 -8 -9 -15 -20 -15 -13 0 -20 -7
-20 -20 0 -13 -7 -20 -20 -20 -13 0 -20 -7 -20 -20 0 -13 -7 -20 -20 -20 -13
0 -20 -7 -20 -20 0 -15 -7 -20 -25 -20 -22 0 -25 -4 -25 -35 0 -28 -4 -35 -20
-35 -13 0 -20 -7 -20 -20 0 -13 -7 -20 -20 -20 -16 0 -20 -7 -20 -35 0 -28 -4
-35 -20 -35 -13 0 -20 -7 -20 -20 0 -13 -7 -20 -20 -20 -16 0 -20 -7 -20 -35
0 -28 -4 -35 -20 -35 -17 0 -20 -7 -20 -40 0 -33 -3 -40 -20 -40 -18 0 -20 -7
-20 -55 0 -52 -1 -55 -25 -55 -24 0 -25 -2 -25 -75 0 -68 -2 -75 -20 -75 -20
0 -20 -7 -20 -320 0 -313 0 -320 20 -320 18 0 20 -7 20 -55 0 -52 1 -55 25
-55 24 0 25 -3 25 -55 0 -48 2 -55 20 -55 17 0 20 -7 20 -40 0 -33 3 -40 20
-40 16 0 20 -7 20 -35 0 -28 4 -35 20 -35 17 0 20 -7 20 -40 0 -33 3 -40 20
-40 16 0 20 -7 20 -35 0 -28 4 -35 20 -35 13 0 20 -7 20 -20 0 -13 7 -20 20
-20 13 0 20 -7 20 -20 0 -15 7 -20 25 -20 16 0 25 -6 25 -15 0 -8 9 -15 20
-15 17 0 20 -7 20 -40 0 -33 3 -40 20 -40 13 0 20 -7 20 -20 0 -13 7 -20 20
-20 16 0 20 -7 20 -35 0 -28 -4 -35 -20 -35 -13 0 -20 -7 -20 -20 0 -17 -7
-20 -40 -20 -33 0 -40 -3 -40 -20 0 -15 -7 -20 -25 -20 -16 0 -25 -6 -25 -15
0 -8 -9 -15 -20 -15 -13 0 -20 -7 -20 -20 0 -13 -7 -20 -20 -20 -13 0 -20 -7
-20 -20 0 -13 -7 -20 -20 -20 -13 0 -20 -7 -20 -20 0 -13 -7 -20 -20 -20 -11
0 -20 -7 -20 -15 0 -8 -9 -15 -20 -15 -19 0 -20 -7 -20 -95 0 -88 1 -95 20
-95 13 0 20 -7 20 -20 0 -13 7 -20 20 -20 13 0 20 -7 20 -20 0 -17 7 -20 40
-20 29 0 40 -4 40 -15 0 -12 16 -15 85 -15 69 0 85 3 85 15 0 12 13 15 60 15
53 0 60 2 60 20 0 13 7 20 20 20 13 0 20 7 20 20 0 13 7 20 20 20 13 0 20 7
20 20 0 15 7 20 25 20 16 0 25 6 25 15 0 11 11 15 40 15 33 0 40 3 40 20 0 13
7 20 20 20 13 0 20 7 20 20 0 13 7 20 20 20 13 0 20 7 20 20 0 18 7 20 65 20
58 0 65 -2 65 -20 0 -17 7 -20 40 -20 33 0 40 -3 40 -20 0 -17 7 -20 40 -20
33 0 40 -3 40 -20 0 -18 7 -20 60 -20 47 0 60 -3 60 -15 0 -12 14 -15 65 -15
58 0 65 -2 65 -20 0 -18 7 -20 60 -20 53 0 60 -2 60 -20 0 -18 7 -20 85 -20
78 0 85 -2 85 -20 0 -19 7 -20 145 -20 122 0 145 -2 145 -15 0 -13 32 -15 225
-15 193 0 225 2 225 15 0 13 23 15 145 15 138 0 145 1 145 20 0 19 7 20 105
20 98 0 105 1 105 20 0 18 7 20 60 20 53 0 60 2 60 20 0 18 7 20 65 20 51 0
65 3 65 15 0 11 11 15 40 15 33 0 40 3 40 20 0 17 7 20 40 20 33 0 40 3 40 20
0 17 7 20 40 20 33 0 40 3 40 20 0 18 7 20 85 20 78 0 85 -2 85 -20 0 -13 7
-20 20 -20 13 0 20 -7 20 -20 0 -13 7 -20 20 -20 13 0 20 -7 20 -20 0 -13 7
-20 20 -20 11 0 20 -7 20 -15 0 -8 9 -15 20 -15 13 0 20 -7 20 -20 0 -17 7
-20 45 -20 38 0 45 -3 45 -20 0 -13 7 -20 20 -20 13 0 20 -7 20 -20 0 -17 7
-20 40 -20 29 0 40 -4 40 -15 0 -12 16 -15 85 -15 69 0 85 3 85 15 0 11 11 15
40 15 33 0 40 3 40 20 0 13 7 20 20 20 13 0 20 7 20 20 0 13 7 20 20 20 16 0
20 7 20 35 0 28 4 35 20 35 13 0 20 7 20 20 0 13 -7 20 -20 20 -18 0 -20 7
-20 55 0 48 -2 55 -20 55 -13 0 -20 7 -20 20 0 13 -7 20 -20 20 -13 0 -20 7
-20 20 0 17 -7 20 -40 20 -33 0 -40 3 -40 20 0 15 -7 20 -25 20 -16 0 -25 6
-25 15 0 8 -9 15 -20 15 -13 0 -20 7 -20 20 0 13 -7 20 -20 20 -13 0 -20 7
-20 20 0 13 -7 20 -20 20 -13 0 -20 7 -20 20 0 13 -7 20 -20 20 -11 0 -20 7
-20 15 0 8 9 15 20 15 13 0 20 7 20 20 0 13 7 20 20 20 13 0 20 7 20 20 0 13
7 20 20 20 13 0 20 7 20 20 0 13 7 20 20 20 11 0 20 7 20 15 0 9 9 15 25 15
23 0 25 4 25 40 0 33 3 40 20 40 13 0 20 7 20 20 0 13 7 20 20 20 16 0 20 7
20 35 0 28 4 35 20 35 17 0 20 7 20 40 0 33 3 40 20 40 16 0 20 7 20 35 0 28
4 35 20 35 16 0 20 7 20 35 0 28 4 35 20 35 18 0 20 7 20 60 0 57 1 60 25 60
25 0 25 1 25 90 0 83 1 90 20 90 19 0 20 7 20 210 0 203 -1 210 -20 210 -19 0
-20 7 -20 90 0 89 0 90 -25 90 -24 0 -25 3 -25 60 0 53 -2 60 -20 60 -18 0
-20 7 -20 55 0 48 -2 55 -20 55 -16 0 -20 7 -20 35 0 28 -4 35 -20 35 -17 0
-20 7 -20 40 0 33 -3 40 -20 40 -11 0 -20 7 -20 15 0 8 -9 15 -20 15 -17 0
-20 7 -20 40 0 33 -3 40 -20 40 -13 0 -20 7 -20 20 0 15 -7 20 -25 20 -16 0
-25 6 -25 15 0 8 -9 15 -20 15 -17 0 -20 7 -20 40 0 33 -3 40 -20 40 -13 0
-20 7 -20 20 0 13 -7 20 -20 20 -11 0 -20 7 -20 15 0 8 -9 15 -20 15 -13 0
-20 7 -20 20 0 13 -7 20 -20 20 -13 0 -20 7 -20 20 0 13 -7 20 -20 20 -13 0
-20 7 -20 20 0 17 -7 20 -45 20 -33 0 -45 4 -45 15 0 8 -9 15 -20 15 -13 0
-20 7 -20 20 0 13 -7 20 -20 20 -13 0 -20 7 -20 20 0 17 -7 20 -40 20 -33 0
-40 3 -40 20 0 13 -7 20 -20 20 -11 0 -20 7 -20 15 0 11 -12 15 -45 15 -38 0
-45 3 -45 20 0 17 -7 20 -40 20 -33 0 -40 3 -40 20 0 17 -7 20 -40 20 -33 0
-40 3 -40 20 0 17 -7 20 -40 20 -29 0 -40 4 -40 15 0 12 -14 15 -65 15 -58 0
-65 2 -65 20 0 18 -7 20 -60 20 -53 0 -60 2 -60 20 0 18 -7 20 -65 20 -58 0
-65 2 -65 20 0 19 -7 20 -100 20 -82 0 -100 3 -100 15 0 13 -21 15 -125 15
l-125 0 0 450 c0 443 0 450 20 450 13 0 20 7 20 20 0 13 7 20 20 20 13 0 20 7
20 20 0 13 7 20 20 20 19 0 20 7 20 110 0 103 -1 110 -20 110 -13 0 -20 7 -20
20 0 13 -7 20 -20 20 -13 0 -20 7 -20 20 0 13 -7 20 -20 20 -11 0 -20 7 -20
15 0 12 -13 15 -60 15 -53 0 -60 2 -60 20 0 17 -7 20 -45 20 -38 0 -45 -3 -45
-20z m90 -150 c0 -17 7 -20 40 -20 l40 0 0 -55 c0 -48 -2 -55 -20 -55 -13 0
-20 -7 -20 -20 0 -13 -7 -20 -20 -20 -11 0 -20 -7 -20 -15 0 -12 -14 -15 -65
-15 -51 0 -65 3 -65 15 0 8 -9 15 -20 15 -13 0 -20 7 -20 20 0 13 -7 20 -20
20 -17 0 -20 7 -20 40 0 33 3 40 20 40 11 0 20 7 20 15 0 8 9 15 20 15 13 0
20 7 20 20 0 18 7 20 65 20 58 0 65 -2 65 -20z m40 -1530 c0 -19 7 -20 165
-20 158 0 165 -1 165 -20 0 -18 7 -20 80 -20 73 0 80 -2 80 -20 0 -18 7 -20
65 -20 51 0 65 -3 65 -15 0 -11 11 -15 40 -15 33 0 40 -3 40 -20 0 -17 7 -20
40 -20 33 0 40 -3 40 -20 0 -17 7 -20 45 -20 38 0 45 -3 45 -20 0 -17 7 -20
40 -20 29 0 40 -4 40 -15 0 -11 11 -15 40 -15 33 0 40 -3 40 -20 0 -13 7 -20
20 -20 13 0 20 -7 20 -20 0 -13 7 -20 20 -20 13 0 20 -7 20 -20 0 -13 7 -20
20 -20 11 0 20 -7 20 -15 0 -11 12 -15 45 -15 38 0 45 -3 45 -20 0 -13 7 -20
20 -20 13 0 20 -7 20 -20 0 -13 -7 -20 -20 -20 -13 0 -20 -7 -20 -20 0 -19 -7
-20 -105 -20 -87 0 -105 -3 -105 -15 0 -13 -21 -15 -125 -15 -118 0 -125 -1
-125 -20 0 -19 -7 -20 -100 -20 -93 0 -100 -1 -100 -20 0 -19 -7 -20 -125 -20
-104 0 -125 -2 -125 -15 0 -12 -18 -15 -105 -15 -98 0 -105 -1 -105 -20 0 -19
-7 -20 -165 -20 -158 0 -165 1 -165 20 0 19 -7 20 -125 20 -104 0 -125 2 -125
15 0 12 -18 15 -100 15 -93 0 -100 1 -100 20 0 19 -7 20 -105 20 -98 0 -105 1
-105 20 0 19 -7 20 -125 20 -104 0 -125 2 -125 15 0 12 -18 15 -100 15 -93 0
-100 1 -100 20 0 18 -7 20 -65 20 -58 0 -65 2 -65 20 0 13 7 20 20 20 13 0 20
7 20 20 0 13 7 20 20 20 11 0 20 7 20 15 0 9 9 15 25 15 18 0 25 5 25 20 0 13
7 20 20 20 13 0 20 7 20 20 0 17 7 20 40 20 33 0 40 3 40 20 0 13 7 20 20 20
11 0 20 7 20 15 0 11 11 15 40 15 33 0 40 3 40 20 0 17 7 20 45 20 38 0 45 3
45 20 0 17 7 20 40 20 33 0 40 3 40 20 0 18 7 20 60 20 47 0 60 3 60 15 0 12
14 15 65 15 58 0 65 2 65 20 0 18 7 20 80 20 73 0 80 2 80 20 0 19 7 20 165
20 158 0 165 1 165 20 0 18 7 20 85 20 78 0 85 -2 85 -20z m-870 -750 c0 -17
7 -20 40 -20 33 0 40 -3 40 -20 0 -13 7 -20 20 -20 11 0 20 -7 20 -15 0 -9 9
-15 25 -15 18 0 25 -5 25 -20 0 -13 7 -20 20 -20 19 0 20 -7 20 -150 0 -143
-1 -150 -20 -150 -13 0 -20 -7 -20 -20 0 -15 -7 -20 -25 -20 -18 0 -25 -5 -25
-20 0 -13 -7 -20 -20 -20 -11 0 -20 -7 -20 -15 0 -11 -11 -15 -40 -15 -33 0
-40 -3 -40 -20 0 -18 -7 -20 -85 -20 -78 0 -85 2 -85 20 0 17 -7 20 -40 20
-29 0 -40 4 -40 15 0 8 -9 15 -20 15 -13 0 -20 7 -20 20 0 13 -7 20 -20 20
-19 0 -20 7 -20 190 0 183 1 190 20 190 11 0 20 7 20 15 0 8 9 15 20 15 13 0
20 7 20 20 0 18 7 20 65 20 58 0 65 2 65 20 0 18 7 20 60 20 53 0 60 -2 60
-20z m1820 0 c0 -17 7 -20 40 -20 33 0 40 -3 40 -20 0 -17 7 -20 40 -20 39 0
40 -1 40 -35 0 -28 4 -35 20 -35 19 0 20 -7 20 -150 0 -143 -1 -150 -20 -150
-17 0 -20 -7 -20 -40 0 -33 -3 -40 -20 -40 -11 0 -20 -7 -20 -15 0 -11 -11
-15 -40 -15 -33 0 -40 -3 -40 -20 0 -19 -7 -20 -105 -20 -98 0 -105 1 -105 20
0 17 -7 20 -40 20 -29 0 -40 4 -40 15 0 8 -9 15 -20 15 -17 0 -20 7 -20 40 0
33 -3 40 -20 40 -19 0 -20 7 -20 150 0 143 1 150 20 150 16 0 20 7 20 35 0 28
4 35 20 35 13 0 20 7 20 20 0 18 7 20 60 20 53 0 60 2 60 20 0 18 7 20 65 20
58 0 65 -2 65 -20z m-2560 -600 c0 -19 7 -20 100 -20 93 0 100 -1 100 -20 0
-19 7 -20 105 -20 87 0 105 -3 105 -15 0 -12 18 -15 105 -15 98 0 105 -1 105
-20 0 -19 7 -20 100 -20 93 0 100 -1 100 -20 0 -19 7 -20 105 -20 98 0 105 -1
105 -20 0 -19 7 -20 125 -20 104 0 125 -2 125 -15 0 -13 39 -15 290 -15 251 0
290 2 290 15 0 13 20 15 120 15 113 0 120 1 120 20 0 19 7 20 105 20 98 0 105
1 105 20 0 19 7 20 105 20 98 0 105 1 105 20 0 19 7 20 100 20 82 0 100 3 100
15 0 12 18 15 105 15 98 0 105 1 105 20 0 19 7 20 125 20 118 0 125 1 125 20
0 17 7 20 40 20 l40 0 0 -130 c0 -123 -1 -130 -20 -130 -18 0 -20 -7 -20 -75
0 -68 -2 -75 -20 -75 -17 0 -20 -7 -20 -40 0 -33 -3 -40 -20 -40 -16 0 -20 -7
-20 -35 0 -28 -4 -35 -20 -35 -17 0 -20 -7 -20 -40 0 -36 -2 -40 -25 -40 -16
0 -25 -6 -25 -15 0 -8 -9 -15 -20 -15 -17 0 -20 -7 -20 -40 0 -33 -3 -40 -20
-40 -13 0 -20 -7 -20 -20 0 -13 -7 -20 -20 -20 -11 0 -20 -7 -20 -15 0 -8 -9
-15 -20 -15 -13 0 -20 -7 -20 -20 0 -13 -7 -20 -20 -20 -13 0 -20 -7 -20 -20
0 -13 -7 -20 -20 -20 -13 0 -20 -7 -20 -20 0 -15 -7 -20 -25 -20 -16 0 -25 -6
-25 -15 0 -8 -9 -15 -20 -15 -13 0 -20 -7 -20 -20 0 -17 -7 -20 -40 -20 -33 0
-40 -3 -40 -20 0 -13 -7 -20 -20 -20 -13 0 -20 -7 -20 -20 0 -17 -7 -20 -40
-20 -29 0 -40 -4 -40 -15 0 -11 -12 -15 -45 -15 -38 0 -45 -3 -45 -20 0 -17
-7 -20 -40 -20 -33 0 -40 -3 -40 -20 0 -17 -7 -20 -40 -20 -33 0 -40 -3 -40
-20 0 -18 -7 -20 -65 -20 -51 0 -65 -3 -65 -15 0 -12 -13 -15 -60 -15 -53 0
-60 -2 -60 -20 0 -19 -7 -20 -105 -20 -98 0 -105 -1 -105 -20 0 -20 -7 -20
-310 -20 -303 0 -310 0 -310 20 0 19 -7 20 -100 20 -93 0 -100 1 -100 20 0 18
-7 20 -65 20 -51 0 -65 3 -65 15 0 12 -13 15 -60 15 -53 0 -60 2 -60 20 0 17
-7 20 -40 20 -33 0 -40 3 -40 20 0 17 -7 20 -45 20 -38 0 -45 3 -45 20 0 17
-7 20 -40 20 -29 0 -40 4 -40 15 0 8 -9 15 -20 15 -13 0 -20 7 -20 20 0 17 -7
20 -40 20 -33 0 -40 3 -40 20 0 13 -7 20 -20 20 -13 0 -20 7 -20 20 0 13 -7
20 -20 20 -11 0 -20 7 -20 15 0 11 -12 15 -45 15 -38 0 -45 3 -45 20 0 13 -7
20 -20 20 -13 0 -20 7 -20 20 0 13 -7 20 -20 20 -13 0 -20 7 -20 20 0 13 -7
20 -20 20 -16 0 -20 7 -20 35 0 28 -4 35 -20 35 -13 0 -20 7 -20 20 0 13 -7
20 -20 20 -13 0 -20 7 -20 20 0 15 -7 20 -25 20 -22 0 -25 4 -25 35 0 28 -4
35 -20 35 -16 0 -20 7 -20 35 0 28 -4 35 -20 35 -17 0 -20 7 -20 40 0 33 -3
40 -20 40 -18 0 -20 7 -20 55 0 48 -2 55 -20 55 -18 0 -20 7 -20 75 0 68 -2
75 -20 75 -19 0 -20 7 -20 95 l0 95 125 0 c118 0 125 -1 125 -20z"/>
<path d="M1860 1215 c0 -11 -11 -15 -40 -15 l-40 0 0 -95 c0 -88 1 -95 20 -95
13 0 20 -7 20 -20 0 -17 7 -20 40 -20 29 0 40 -4 40 -15 0 -13 94 -15 785 -15
691 0 785 2 785 15 0 11 11 15 40 15 33 0 40 3 40 20 0 15 7 20 25 20 24 0 25
2 25 75 0 73 -1 75 -25 75 -18 0 -25 5 -25 20 0 13 -7 20 -20 20 -11 0 -20 7
-20 15 0 13 -98 15 -825 15 -727 0 -825 -2 -825 -15z"/>
<path d="M790 3610 c0 -18 -7 -20 -85 -20 -69 0 -85 -3 -85 -15 0 -11 -11 -15
-40 -15 -33 0 -40 -3 -40 -20 0 -17 -7 -20 -45 -20 -38 0 -45 -3 -45 -20 0
-17 -7 -20 -40 -20 -33 0 -40 -3 -40 -20 0 -13 -7 -20 -20 -20 -11 0 -20 -7
-20 -15 0 -8 -9 -15 -20 -15 -13 0 -20 -7 -20 -20 0 -13 -7 -20 -20 -20 -13 0
-20 -7 -20 -20 0 -13 -7 -20 -20 -20 -13 0 -20 -7 -20 -20 0 -13 -7 -20 -20
-20 -11 0 -20 -7 -20 -15 0 -9 -9 -15 -25 -15 -22 0 -25 -4 -25 -40 0 -33 -3
-40 -20 -40 -16 0 -20 -7 -20 -35 0 -28 -4 -35 -20 -35 -19 0 -20 -7 -20 -210
0 -203 1 -210 20 -210 16 0 20 -7 20 -35 0 -28 4 -35 20 -35 17 0 20 -7 20
-40 0 -36 3 -40 25 -40 16 0 25 -6 25 -15 0 -8 9 -15 20 -15 13 0 20 -7 20
-20 0 -13 7 -20 20 -20 13 0 20 -7 20 -20 0 -17 7 -20 40 -20 l40 0 0 40 c0
33 3 40 20 40 16 0 20 7 20 35 0 28 4 35 20 35 17 0 20 7 20 40 0 33 3 40 20
40 11 0 20 7 20 15 0 9 9 15 25 15 23 0 25 4 25 40 0 33 3 40 20 40 13 0 20 7
20 20 0 13 7 20 20 20 11 0 20 7 20 15 0 8 9 15 20 15 13 0 20 7 20 20 0 13 7
20 20 20 13 0 20 7 20 20 0 13 7 20 20 20 13 0 20 7 20 20 0 13 7 20 20 20 11
0 20 7 20 15 0 9 9 15 25 15 18 0 25 5 25 20 0 13 7 20 20 20 13 0 20 7 20 20
0 13 7 20 20 20 13 0 20 7 20 20 0 17 7 20 40 20 29 0 40 4 40 15 0 8 9 15 20
15 13 0 20 7 20 20 0 13 7 20 20 20 13 0 20 7 20 20 0 17 7 20 45 20 38 0 45
3 45 20 0 17 7 20 40 20 29 0 40 4 40 15 0 11 11 15 40 15 33 0 40 3 40 20 0
17 7 20 40 20 33 0 40 3 40 20 0 17 7 20 45 20 38 0 45 3 45 20 0 18 7 20 60
20 l60 0 0 35 c0 28 -4 35 -20 35 -13 0 -20 7 -20 20 0 17 -7 20 -40 20 -33 0
-40 3 -40 20 0 18 -7 20 -65 20 -51 0 -65 3 -65 15 0 12 -13 15 -60 15 -53 0
-60 2 -60 20 0 19 -7 20 -205 20 -198 0 -205 -1 -205 -20z"/>
<path d="M4090 3610 c0 -18 -7 -20 -80 -20 -64 0 -80 -3 -80 -15 0 -11 -12
-15 -45 -15 -38 0 -45 -3 -45 -20 0 -17 -7 -20 -40 -20 -33 0 -40 -3 -40 -20
0 -17 -7 -20 -40 -20 -33 0 -40 -3 -40 -20 0 -13 7 -20 20 -20 11 0 20 -7 20
-15 0 -12 13 -15 60 -15 53 0 60 -2 60 -20 0 -17 7 -20 45 -20 38 0 45 -3 45
-20 0 -17 7 -20 40 -20 33 0 40 -3 40 -20 0 -17 7 -20 40 -20 29 0 40 -4 40
-15 0 -11 11 -15 40 -15 33 0 40 -3 40 -20 0 -15 7 -20 25 -20 18 0 25 -5 25
-20 0 -17 7 -20 40 -20 33 0 40 -3 40 -20 0 -13 7 -20 20 -20 11 0 20 -7 20
-15 0 -8 9 -15 20 -15 13 0 20 -7 20 -20 0 -13 7 -20 20 -20 13 0 20 -7 20
-20 0 -17 7 -20 40 -20 33 0 40 -3 40 -20 0 -15 7 -20 25 -20 16 0 25 -6 25
-15 0 -8 9 -15 20 -15 13 0 20 -7 20 -20 0 -13 7 -20 20 -20 13 0 20 -7 20
-20 0 -13 7 -20 20 -20 16 0 20 -7 20 -35 0 -28 4 -35 20 -35 13 0 20 -7 20
-20 0 -13 7 -20 20 -20 13 0 20 -7 20 -20 0 -13 7 -20 20 -20 16 0 20 -7 20
-35 0 -31 3 -35 25 -35 18 0 25 -5 25 -20 0 -13 7 -20 20 -20 17 0 20 -7 20
-40 0 -33 3 -40 20 -40 16 0 20 -7 20 -35 0 -28 4 -35 20 -35 16 0 20 -7 20
-35 0 -28 4 -35 20 -35 11 0 20 7 20 15 0 8 9 15 20 15 13 0 20 7 20 20 0 13
7 20 20 20 13 0 20 7 20 20 0 13 7 20 20 20 16 0 20 7 20 35 0 31 3 35 25 35
23 0 25 4 25 40 0 33 3 40 20 40 18 0 20 7 20 55 0 48 2 55 20 55 19 0 20 7
20 130 0 123 -1 130 -20 130 -18 0 -20 7 -20 55 0 48 -2 55 -20 55 -17 0 -20
7 -20 40 0 36 -2 40 -25 40 -22 0 -25 4 -25 35 0 28 -4 35 -20 35 -13 0 -20 7
-20 20 0 13 -7 20 -20 20 -13 0 -20 7 -20 20 0 13 -7 20 -20 20 -13 0 -20 7
-20 20 0 13 -7 20 -20 20 -11 0 -20 7 -20 15 0 11 -11 15 -40 15 -33 0 -40 3
-40 20 0 13 -7 20 -20 20 -13 0 -20 7 -20 20 0 17 -7 20 -45 20 -38 0 -45 3
-45 20 0 18 -7 20 -60 20 -47 0 -60 3 -60 15 0 12 -14 15 -65 15 -58 0 -65 2
-65 20 0 19 -7 20 -205 20 -198 0 -205 -1 -205 -20z"/>
<path d="M11588 2769 c-17 -9 -18 -41 -18 -434 0 -409 1 -425 19 -435 22 -11
83 -13 119 -4 22 6 22 8 22 199 l0 193 40 36 c65 59 122 60 164 3 19 -25 21
-45 24 -225 3 -132 8 -199 16 -204 13 -9 98 -10 120 -2 14 5 16 34 16 223 0
127 -5 232 -11 256 -6 22 -28 56 -48 76 -75 75 -191 77 -286 5 l-35 -27 0 169
c0 167 0 170 -22 176 -35 9 -101 7 -120 -5z"/>
<path d="M8785 2717 c-77 -20 -128 -51 -178 -107 -134 -149 -140 -467 -13
-618 55 -64 170 -111 274 -112 70 0 179 29 212 57 27 22 30 31 30 83 0 32 -4
61 -9 64 -5 3 -39 -10 -76 -29 -78 -41 -154 -47 -220 -16 -49 22 -68 43 -97
106 -18 41 -23 68 -23 150 0 128 19 188 80 244 70 64 159 68 267 11 71 -36 78
-33 78 43 0 41 -5 53 -29 76 -16 15 -46 33 -67 39 -59 19 -172 23 -229 9z"/>
<path d="M7035 2659 c-49 -33 -96 -63 -104 -68 -17 -11 -21 -95 -4 -112 9 -9
29 -2 88 30 42 22 78 41 81 41 2 0 4 -119 4 -265 l0 -264 -87 -3 -88 -3 0 -60
0 -60 239 -3 c263 -3 256 -4 256 60 0 65 -4 68 -86 68 l-74 0 -2 348 -3 347
-65 2 c-64 2 -66 1 -155 -58z"/>
<path d="M8128 2643 c-15 -4 -18 -16 -18 -73 l0 -69 -42 -3 -43 -3 0 -60 0
-60 43 -3 42 -3 0 -171 c0 -102 5 -186 12 -210 26 -86 143 -131 247 -95 40 14
56 50 47 103 l-7 35 -50 -7 c-40 -5 -53 -3 -69 11 -18 17 -20 31 -20 176 l0
158 68 3 67 3 8 35 c6 22 5 45 -2 63 -10 26 -14 27 -76 27 l-65 0 0 65 c0 53
-3 66 -19 75 -20 10 -90 12 -123 3z"/>
<path d="M10618 2643 c-15 -4 -18 -16 -18 -73 l0 -69 -42 -3 -43 -3 0 -60 0
-60 43 -3 42 -3 0 -171 c0 -102 5 -186 12 -210 26 -86 143 -131 247 -95 40 14
56 50 47 103 l-7 35 -50 -7 c-40 -5 -53 -3 -69 11 -18 17 -20 31 -20 176 l0
158 68 3 67 3 8 35 c6 22 5 45 -2 63 -10 26 -14 27 -76 27 l-65 0 0 65 c0 53
-3 66 -19 75 -20 10 -90 12 -123 3z"/>
<path d="M7683 2500 c-107 -25 -170 -120 -144 -218 16 -57 58 -95 148 -132 72
-29 123 -67 123 -91 0 -5 -11 -21 -25 -34 -32 -33 -99 -33 -179 0 -33 13 -63
22 -68 19 -10 -6 -10 -95 0 -111 13 -20 78 -43 140 -49 76 -8 161 10 210 46
73 53 93 168 42 239 -21 31 -101 77 -171 100 -73 23 -98 72 -59 111 26 26 93
26 161 0 29 -10 56 -17 61 -14 16 10 9 83 -11 103 -33 33 -151 50 -228 31z"/>
<path d="M9365 2500 c-63 -13 -125 -41 -135 -61 -14 -26 -12 -85 4 -98 10 -8
27 -5 72 16 40 18 81 29 126 31 61 4 69 2 92 -21 20 -20 26 -36 26 -72 l0 -45
-52 0 c-131 0 -239 -35 -280 -91 -23 -30 -33 -93 -24 -144 26 -136 246 -180
364 -72 l22 20 0 -30 c0 -35 13 -43 68 -43 66 0 64 -7 60 251 -2 195 -6 239
-20 264 -21 39 -56 71 -93 85 -39 15 -180 21 -230 10z m185 -398 c0 -38 -5
-53 -22 -69 -56 -51 -124 -58 -163 -18 -27 26 -30 41 -15 80 13 35 62 54 138
55 l62 0 0 -48z"/>
<path d="M10149 2501 c-42 -14 -72 -32 -106 -64 l-33 -31 0 37 c0 26 -6 39
-19 47 -25 13 -77 13 -102 0 -18 -10 -19 -25 -19 -410 0 -385 1 -400 19 -410
22 -11 83 -13 119 -4 21 6 22 10 22 145 0 77 2 139 5 139 3 0 24 -13 46 -30
83 -60 201 -49 275 26 63 62 88 152 82 284 -6 122 -39 198 -104 243 -44 31
-135 44 -185 28z m69 -147 c75 -52 81 -234 9 -305 -27 -28 -36 -31 -75 -26
-34 4 -53 14 -83 43 l-39 38 0 91 c0 90 0 92 33 122 17 17 41 35 52 41 29 16
77 14 103 -4z"/>
<path d="M11188 2496 c-77 -21 -124 -60 -161 -135 -30 -62 -32 -72 -32 -176 0
-101 2 -115 29 -168 35 -71 86 -111 164 -128 82 -17 212 3 247 37 17 17 22
129 5 139 -5 3 -28 -6 -50 -21 -80 -53 -180 -40 -217 29 -25 47 -25 189 1 240
41 83 132 89 239 14 24 -17 37 5 37 64 0 56 -25 83 -95 105 -58 17 -104 17
-167 0z"/>
<path d="M12415 2500 c-63 -13 -125 -41 -135 -61 -14 -26 -12 -85 4 -98 10 -8
27 -5 72 16 40 18 81 29 126 31 61 4 69 2 92 -21 20 -20 26 -36 26 -72 l0 -45
-52 0 c-131 0 -239 -35 -280 -91 -23 -30 -33 -93 -24 -144 26 -136 246 -180
364 -72 l22 20 0 -30 c0 -35 13 -43 68 -43 66 0 64 -7 60 251 -2 195 -6 239
-20 264 -21 39 -56 71 -93 85 -39 15 -180 21 -230 10z m185 -398 c0 -38 -5
-53 -22 -69 -56 -51 -124 -58 -163 -18 -27 26 -30 41 -15 80 13 35 62 54 138
55 l62 0 0 -48z"/>
</g>
</svg>
